<svg width="90" height="75" xmlns="http://www.w3.org/2000/svg" version="1.1" enable-background="new 0 0 100 100" xml:space="preserve">
 <g>
  <title>Layer 1</title>
  <g id="svg_1">
   <g id="svg_2">
    <path d="m45,2c1.9,0 3.8,0.1 5.7,0.2c-0.6,0.2 -1.2,0.5 -1.6,0.9c-1.8,1.8 -1.1,5.3 1.8,8.2c1.7,1.7 3.8,2.8 5.6,2.8c1,0 1.9,-0.3 2.6,-1c1.8,-1.8 1.1,-5.3 -1.8,-8.2c-1.1,-1.1 -2.2,-1.9 -3.4,-2.3c16.9,2.2 30.7,10.6 33.6,21.2c0.1,0.4 -0.1,0.8 -0.2,0.9c-0.10001,0.2 -0.4,0.4 -0.8,0.4l-82.9,0c-0.4,0 -0.7,-0.3 -0.8,-0.4c-0.1,-0.2 -0.3,-0.5 -0.2,-0.9c2.9,-10.6 16.6,-19 33.4,-21.2c-1.1,0.5 -2.2,1.2 -3.1,2.2c-2.9,2.9 -3.6,6.3 -1.8,8.2c0.7,0.7 1.5,1 2.6,1c1.7,0 3.8,-1 5.6,-2.8c2.9,-2.9 3.6,-6.3 1.8,-8.2c-0.4,-0.4 -0.8,-0.7 -1.4,-0.8c1.7,-0.1 3.5,-0.2 5.3,-0.2m22.5,20.1c2.6,0 4.5,-3 4.5,-7c0,-4.1 -1.9,-7 -4.5,-7s-4.5,3 -4.5,7c0,4.1 1.9,7 4.5,7m-22,0c2.6,0 4.5,-3 4.5,-7c0,-4.1 -1.9,-7 -4.5,-7s-4.5,3 -4.5,7c0,4.1 1.9,7 4.5,7m-23,0c2.6,0 4.5,-3 4.5,-7c0,-4.1 -1.9,-7 -4.5,-7s-4.5,3 -4.5,7c0,4.1 1.9,7 4.5,7m22.5,-22.1c-22.3,0 -40.7,10.1 -44.3,23.3c-0.5,1.9 0.9,3.9 2.9,3.9l82.8,0c2,0 3.5,-1.9 2.9,-3.9c-3.60001,-13.2 -22,-23.3 -44.3,-23.3l0,0zm-11.3,12c-0.5,0 -0.9,-0.1 -1.2,-0.4c-1,-1 -0.2,-3.4 1.8,-5.3c1.4,-1.4 3,-2.2 4.1,-2.2c0.5,0 0.9,0.1 1.2,0.4c1,1 0.2,3.4 -1.8,5.3c-1.4,1.4 -3,2.2 -4.1,2.2l0,0zm22.7,0.1c-1.2,0 -2.8,-0.8 -4.1,-2.2c-2,-2 -2.7,-4.4 -1.8,-5.3c0.3,-0.3 0.7,-0.4 1.2,-0.4c1.2,0 2.8,0.8 4.1,2.2c2,2 2.7,4.4 1.8,5.3c-0.3,0.3 -0.7,0.4 -1.2,0.4l0,0zm11.1,8c-1.4,0 -2.5,-2.3 -2.5,-5c0,-2.8 1.1,-5 2.5,-5s2.5,2.3 2.5,5c0,2.8 -1.1,5 -2.5,5l0,0zm-22,0c-1.4,0 -2.5,-2.3 -2.5,-5c0,-2.8 1.1,-5 2.5,-5s2.5,2.3 2.5,5c0,2.8 -1.1,5 -2.5,5l0,0zm-23,0c-1.4,0 -2.5,-2.3 -2.5,-5c0,-2.8 1.1,-5 2.5,-5s2.5,2.3 2.5,5c0,2.8 -1.1,5 -2.5,5l0,0z" id="svg_3"/>
   </g>
   <g id="svg_4">
    <path d="m84.2,33.9c2.10001,0 3.8,1.3 3.8,3s-1.7,3 -3.8,3l-78.4,0c-2.1,0 -3.8,-1.3 -3.8,-3s1.7,-3 3.8,-3l78.4,0m0,-2l-78.4,0c-3.2,0 -5.8,2.2 -5.8,5s2.6,5 5.8,5l78.5,0c3.2,0 5.8,-2.2 5.8,-5s-2.7,-5 -5.9,-5l0,0z" id="svg_5"/>
   </g>
   <g id="svg_6">
    <path d="m84.2,61.1c2,0 3.8,2.7 3.8,5.8s-1.7,5.8 -3.8,5.8l-78.4,0c-2,0 -3.8,-2.7 -3.8,-5.8s1.7,-5.8 3.8,-5.8l78.4,0m0,-2l-78.4,0c-3.2,0 -5.8,3.5 -5.8,7.8s2.6,7.8 5.8,7.8l78.5,0c3.2,0 5.8,-3.5 5.8,-7.8s-2.7,-7.8 -5.9,-7.8l0,0z" id="svg_7"/>
   </g>
   <g id="svg_8">
    <path d="m84.2,47c2.10001,0 3.8,1.3 3.8,3s-1.7,3 -3.8,3l-78.4,0c-2.1,0 -3.8,-1.3 -3.8,-3s1.7,-3 3.8,-3l78.4,0m0,-2l-78.4,0c-3.2,0 -5.8,2.2 -5.8,5c0,2.8 2.6,5 5.8,5l78.5,0c3.2,0 5.8,-2.2 5.8,-5c-0.1,-2.7 -2.7,-5 -5.9,-5l0,0z" id="svg_9"/>
   </g>
  </g>
 </g>

</svg>